<mxfile host="Electron" modified="2024-02-28T10:17:58.221Z" agent="Mozilla/5.0 (Windows NT 10.0; Win64; x64) AppleWebKit/537.36 (KHTML, like Gecko) draw.io/23.1.5 Chrome/120.0.6099.109 Electron/28.1.0 Safari/537.36" etag="u9DK4c-GrCJquyfoH7KA" version="23.1.5" type="device">
  <diagram name="Page-1" id="aXyUlh3HYMnCY8NTiYYX">
    <mxGraphModel dx="1434" dy="836" grid="1" gridSize="10" guides="1" tooltips="1" connect="1" arrows="1" fold="1" page="1" pageScale="1" pageWidth="1169" pageHeight="827" math="0" shadow="0">
      <root>
        <mxCell id="0" />
        <mxCell id="1" parent="0" />
        <mxCell id="lJwkFV-IzIMS-1jgXNet-6" value="" style="rounded=0;whiteSpace=wrap;html=1;fillColor=#f5f5f5;fontColor=#333333;strokeColor=#666666;" vertex="1" parent="1">
          <mxGeometry x="180" y="190" width="505" height="230" as="geometry" />
        </mxCell>
        <mxCell id="lJwkFV-IzIMS-1jgXNet-1" value="User" style="shape=umlActor;verticalLabelPosition=bottom;verticalAlign=top;html=1;outlineConnect=0;fillColor=#000000;strokeColor=#000000;fontColor=#000000;" vertex="1" parent="1">
          <mxGeometry x="230" y="290" width="30" height="60" as="geometry" />
        </mxCell>
        <mxCell id="lJwkFV-IzIMS-1jgXNet-2" value="MatFunc&lt;br&gt;Webapp" style="html=1;whiteSpace=wrap;fillColor=#dae8fc;strokeColor=#6c8ebf;fontColor=#000000;" vertex="1" parent="1">
          <mxGeometry x="340" y="295" width="110" height="50" as="geometry" />
        </mxCell>
        <mxCell id="lJwkFV-IzIMS-1jgXNet-3" value="Wolfram Alpha&lt;br&gt;API" style="html=1;whiteSpace=wrap;fillColor=#dae8fc;strokeColor=#6c8ebf;fontColor=#000000;" vertex="1" parent="1">
          <mxGeometry x="540" y="295" width="110" height="50" as="geometry" />
        </mxCell>
        <mxCell id="lJwkFV-IzIMS-1jgXNet-4" value="" style="endArrow=classic;startArrow=classic;html=1;rounded=0;entryX=0;entryY=0.5;entryDx=0;entryDy=0;exitX=1;exitY=0.5;exitDx=0;exitDy=0;strokeColor=#000000;" edge="1" parent="1" source="lJwkFV-IzIMS-1jgXNet-2" target="lJwkFV-IzIMS-1jgXNet-3">
          <mxGeometry width="50" height="50" relative="1" as="geometry">
            <mxPoint x="430" y="430" as="sourcePoint" />
            <mxPoint x="480" y="380" as="targetPoint" />
          </mxGeometry>
        </mxCell>
        <mxCell id="lJwkFV-IzIMS-1jgXNet-5" value="" style="endArrow=classic;html=1;rounded=0;entryX=0;entryY=0.5;entryDx=0;entryDy=0;exitX=0.5;exitY=0.5;exitDx=0;exitDy=0;exitPerimeter=0;strokeColor=#000000;" edge="1" parent="1" source="lJwkFV-IzIMS-1jgXNet-1" target="lJwkFV-IzIMS-1jgXNet-2">
          <mxGeometry width="50" height="50" relative="1" as="geometry">
            <mxPoint x="300" y="430" as="sourcePoint" />
            <mxPoint x="350" y="380" as="targetPoint" />
          </mxGeometry>
        </mxCell>
        <mxCell id="lJwkFV-IzIMS-1jgXNet-7" value="Kontextdiagramm" style="text;strokeColor=none;align=center;fillColor=none;html=1;verticalAlign=middle;whiteSpace=wrap;rounded=0;fontColor=#000000;fontSize=17;" vertex="1" parent="1">
          <mxGeometry x="342.5" y="190" width="180" height="30" as="geometry" />
        </mxCell>
      </root>
    </mxGraphModel>
  </diagram>
</mxfile>
